<?xml version="1.0" standalone="no"?>
<!DOCTYPE svg PUBLIC "-//W3C//DTD SVG 20010904//EN"
 "http://www.w3.org/TR/2001/REC-SVG-20010904/DTD/svg10.dtd">
<svg version="1.0" xmlns="http://www.w3.org/2000/svg"
 width="1592.000000pt" height="469.000000pt" viewBox="0 0 1592.000000 469.000000"
 preserveAspectRatio="xMidYMid meet">

<g transform="translate(0.000000,469.000000) scale(0.100000,-0.100000)"
fill="#000000" stroke="none">
<path d="M90 2370 l0 -2231 1283 4 c1385 4 1347 2 1607 58 555 121 939 440
1050 875 59 232 51 483 -24 701 -115 337 -409 601 -783 705 -46 13 -83 26 -83
29 0 4 39 25 87 48 268 129 466 341 548 586 74 223 56 536 -46 780 -143 344
-456 554 -964 647 -119 22 -132 22 -1397 26 l-1278 3 0 -2231z m2108 1187
c125 -36 207 -109 237 -209 19 -66 19 -180 0 -245 -19 -63 -84 -139 -152 -176
-98 -53 -150 -59 -500 -64 l-323 -5 0 362 0 362 343 -5 c267 -3 354 -8 395
-20z m227 -1715 c180 -50 262 -138 272 -292 13 -178 -68 -292 -247 -352 -62
-21 -84 -22 -527 -26 l-463 -3 0 351 0 351 443 -3 c418 -4 446 -5 522 -26z"/>
<path d="M4560 2370 l0 -2230 675 0 675 0 0 1182 0 1183 24 -25 c13 -14 434
-546 936 -1182 l912 -1158 604 0 604 0 0 2230 0 2230 -670 0 -670 0 0 -1100
c0 -605 -3 -1100 -7 -1100 -5 1 -396 496 -871 1100 l-863 1100 -674 0 -675 0
0 -2230z"/>
<path d="M9570 3918 l0 -683 680 680 c374 374 680 681 680 682 0 2 -306 3
-680 3 l-680 0 0 -682z"/>
<path d="M13640 3510 l0 -670 -670 0 -670 0 0 -470 0 -470 670 0 670 0 0 -670
0 -670 450 0 450 0 0 670 0 670 670 0 670 0 0 470 0 470 -670 0 -670 0 0 670
0 670 -450 0 -450 0 0 -670z"/>
<path d="M10252 3397 l-682 -682 0 -1288 0 -1287 685 0 685 0 0 1970 c0 1084
-1 1970 -3 1970 -1 0 -309 -307 -685 -683z"/>
<path d="M11365 617 c-89 -43 -136 -117 -136 -219 -1 -231 282 -335 434 -158
95 111 68 287 -57 365 -68 42 -168 47 -241 12z m169 -18 c22 -6 56 -29 81 -53
96 -97 77 -263 -39 -331 -57 -34 -143 -35 -201 -2 -119 67 -140 240 -41 336
55 54 124 71 200 50z"/>
<path d="M11380 401 c0 -134 1 -141 20 -141 18 0 20 7 20 60 0 56 2 60 23 60
16 0 32 -16 60 -60 25 -41 43 -60 57 -60 26 0 26 2 -15 65 -32 51 -33 54 -15
60 34 11 50 35 50 74 0 58 -24 73 -120 79 l-80 5 0 -142z m148 87 c7 -7 12
-21 12 -33 0 -33 -20 -45 -72 -45 l-48 0 0 45 0 45 48 0 c26 0 53 -5 60 -12z"/>
</g>
</svg>
