<?xml version="1.0" standalone="no"?>
<!DOCTYPE svg PUBLIC "-//W3C//DTD SVG 20010904//EN"
 "http://www.w3.org/TR/2001/REC-SVG-20010904/DTD/svg10.dtd">
<svg version="1.0" xmlns="http://www.w3.org/2000/svg"
 width="1024.000000pt" height="109.000000pt" viewBox="0 0 1024.000000 109.000000"
 preserveAspectRatio="xMidYMid meet">

<g transform="translate(0.000000,109.000000) scale(0.100000,-0.100000)"
fill="#000000" stroke="none">
<path d="M440 999 c-219 -43 -379 -273 -341 -490 41 -237 263 -398 494 -360
73 12 190 66 223 102 17 18 16 20 -6 44 l-23 25 -35 -27 c-97 -74 -243 -95
-359 -51 -80 29 -172 121 -201 201 -30 78 -30 186 0 264 29 80 121 172 201
201 116 44 262 23 359 -51 l35 -27 23 25 c22 24 23 26 6 44 -29 32 -147 89
-210 100 -68 13 -102 12 -166 0z"/>
<path d="M383 718 c-27 -30 -53 -69 -53 -81 0 -3 8 -3 18 0 13 4 79 113 68
113 -1 0 -16 -15 -33 -32z"/>
<path d="M432 711 c-24 -42 -28 -61 -12 -61 6 0 10 7 10 15 0 9 7 30 16 46 23
45 11 45 -14 0z"/>
<path d="M655 714 c13 -19 27 -44 30 -54 3 -10 14 -20 24 -23 27 -7 16 23 -26
72 -43 51 -61 54 -28 5z"/>
<path d="M618 695 c8 -25 18 -45 23 -45 13 0 11 6 -11 50 -27 52 -31 51 -12
-5z"/>
<path d="M995 705 c-19 -18 -25 -35 -25 -68 0 -56 23 -86 72 -93 30 -5 41 -2
62 19 14 15 26 31 26 37 0 17 -24 11 -43 -10 -22 -26 -52 -25 -71 2 -31 44 -7
108 40 108 13 0 27 -7 30 -15 7 -17 44 -21 44 -5 0 6 -9 19 -20 30 -29 29 -84
27 -115 -5z"/>
<path d="M1179 704 c-35 -37 -33 -108 5 -141 75 -64 175 23 136 118 -15 36
-37 49 -83 49 -23 0 -41 -8 -58 -26z m99 -16 c17 -17 15 -84 -4 -102 -48 -49
-109 29 -74 95 12 22 59 26 78 7z"/>
<path d="M1350 640 c0 -72 3 -90 14 -90 9 0 16 12 18 33 2 25 8 33 26 35 30 5
52 -14 52 -44 0 -17 6 -24 20 -24 17 0 19 5 13 33 -3 17 -10 37 -15 44 -5 6
-5 12 0 15 5 1 12 13 16 25 12 38 -24 63 -89 63 l-55 0 0 -90z m108 33 c3 -17
-3 -24 -22 -29 -37 -9 -56 2 -56 31 0 24 3 26 38 23 29 -2 38 -7 40 -25z"/>
<path d="M1530 640 c0 -73 3 -90 15 -90 10 0 15 10 15 30 0 28 3 30 35 30 39
0 75 28 75 60 0 37 -35 60 -90 60 l-50 0 0 -90z m95 30 c0 -21 -5 -26 -32 -28
-31 -3 -33 -1 -33 28 0 29 2 31 33 28 27 -2 32 -7 32 -28z"/>
<path d="M1718 716 c-10 -7 -22 -26 -28 -42 -36 -93 63 -173 137 -110 38 33
40 102 4 140 -27 29 -83 35 -113 12z m92 -35 c35 -66 -26 -144 -74 -95 -19 18
-21 85 -4 102 19 19 66 15 78 -7z"/>
<path d="M1880 640 c0 -73 3 -90 15 -90 10 0 15 11 15 35 0 32 3 35 28 35 34
0 52 -16 52 -47 0 -16 6 -23 18 -23 15 0 18 6 14 33 -2 17 -9 37 -14 44 -5 7
-5 14 2 18 5 3 10 19 10 35 0 37 -23 50 -89 50 l-51 0 0 -90z m106 45 c9 -23
-16 -46 -45 -43 -20 2 -27 9 -29 31 -3 25 -1 27 33 27 23 0 38 -6 41 -15z"/>
<path d="M2103 713 c-3 -10 -19 -51 -34 -90 -25 -68 -26 -73 -9 -73 10 0 22 9
25 20 5 15 15 20 42 20 26 0 36 -5 40 -20 3 -12 14 -20 25 -20 14 0 18 5 15
14 -3 8 -18 49 -33 90 -20 59 -31 76 -46 76 -10 0 -21 -8 -25 -17z m42 -75 c6
-25 5 -28 -19 -28 -30 0 -29 -2 -15 39 12 35 24 31 34 -11z"/>
<path d="M2190 715 c0 -9 9 -15 25 -15 24 0 25 -2 25 -75 0 -68 2 -75 20 -75
18 0 20 7 20 75 0 72 1 75 24 75 13 0 26 7 30 15 4 13 -7 15 -69 15 -60 0 -75
-3 -75 -15z"/>
<path d="M2350 640 l0 -90 66 0 c46 0 64 4 62 12 -2 6 -22 12 -44 12 -35 1
-39 4 -42 29 -3 26 -1 27 37 27 23 0 41 5 41 10 0 6 -18 10 -40 10 -36 0 -40
3 -40 24 0 22 5 25 42 28 23 2 43 9 46 16 3 9 -14 12 -62 12 l-66 0 0 -90z"/>
<path d="M481 684 c0 -11 3 -14 6 -6 3 7 2 16 -1 19 -3 4 -6 -2 -5 -13z"/>
<path d="M330 514 c0 -15 33 -63 60 -89 l31 -30 -28 56 c-15 31 -36 59 -45 62
-10 3 -18 3 -18 1z"/>
<path d="M708 513 c-9 -2 -20 -13 -23 -23 -3 -10 -17 -35 -30 -54 -13 -20 -20
-36 -15 -36 12 0 77 78 83 101 3 10 4 18 4 18 -1 -1 -10 -3 -19 -6z"/>
<path d="M410 488 c0 -7 12 -31 26 -53 14 -22 22 -31 18 -20 -4 11 -12 35 -18
53 -11 32 -26 43 -26 20z"/>
<path d="M618 455 c-19 -56 -15 -57 12 -5 22 44 24 50 11 50 -5 0 -15 -20 -23
-45z"/>
<path d="M481 464 c0 -11 3 -14 6 -6 3 7 2 16 -1 19 -3 4 -6 -2 -5 -13z"/>
<path d="M997 452 c-20 -22 -22 -52 -4 -76 18 -24 70 -18 76 9 3 20 3 20 -18
1 -17 -15 -23 -16 -36 -6 -20 17 -19 59 1 67 9 3 25 1 35 -6 21 -13 26 -2 7
17 -17 17 -42 15 -61 -6z"/>
<path d="M1144 444 c-24 -36 -9 -78 29 -82 36 -4 57 13 57 49 0 57 -57 79 -86
33z m64 -32 c4 -38 -20 -54 -45 -29 -23 23 -9 69 20 65 17 -2 23 -11 25 -36z"/>
<path d="M1290 417 c0 -35 4 -57 11 -57 7 0 10 12 7 30 -3 17 -1 30 3 30 5 0
15 -13 24 -30 24 -46 35 -36 33 28 -1 42 -2 47 -5 20 -4 -41 -18 -50 -28 -19
-3 10 -14 26 -25 36 -20 18 -20 17 -20 -38z"/>
<path d="M1440 415 c0 -59 17 -76 22 -22 l3 32 20 -32 c29 -49 45 -42 45 16 0
28 -4 53 -10 56 -6 4 -10 -8 -10 -29 0 -46 -12 -46 -33 -1 -24 50 -37 43 -37
-20z"/>
<path d="M1597 463 c-4 -3 -7 -28 -7 -55 l0 -48 43 1 c38 1 39 2 12 8 -36 8
-39 32 -5 42 l25 7 -27 1 c-40 1 -38 31 2 31 17 0 30 5 30 10 0 11 -63 14 -73
3z"/>
<path d="M1748 459 c-21 -12 -24 -69 -6 -87 23 -23 78 -8 78 22 0 5 -9 1 -20
-9 -27 -24 -50 -13 -50 25 0 35 22 49 45 30 9 -7 19 -10 23 -6 8 8 -26 36 -42
36 -6 0 -19 -5 -28 -11z"/>
<path d="M1876 461 c-3 -5 3 -11 13 -14 15 -4 21 -16 24 -48 l4 -44 1 43 c1
27 7 45 17 48 8 4 15 10 15 15 0 12 -67 12 -74 0z"/>
<path d="M2020 416 c0 -31 5 -56 10 -56 6 0 10 22 10 49 0 28 -4 53 -10 56 -6
4 -10 -15 -10 -49z"/>
<path d="M2118 459 c-21 -12 -24 -69 -6 -87 19 -19 66 -15 78 7 15 29 12 49
-10 71 -22 22 -37 24 -62 9z m58 -34 c11 -46 -35 -75 -56 -35 -8 14 -8 26 0
40 15 29 48 26 56 -5z"/>
<path d="M2257 464 c-10 -11 -9 -104 2 -104 6 0 11 17 13 38 l3 37 22 -37 c12
-21 27 -38 33 -38 6 0 10 24 10 56 0 34 -4 53 -10 49 -5 -3 -10 -21 -11 -38 0
-30 -1 -31 -14 -12 -35 49 -41 56 -48 49z"/>
<path d="M2412 458 c-20 -20 -13 -39 18 -49 17 -6 30 -17 30 -25 0 -17 -37
-19 -43 -1 -2 6 -8 9 -12 4 -15 -13 11 -29 41 -25 23 2 29 8 29 28 0 17 -7 26
-24 30 -14 3 -27 12 -29 19 -4 11 3 13 28 8 28 -6 31 -5 20 8 -15 18 -42 19
-58 3z"/>
</g>
</svg>
