<?xml version="1.0" standalone="no"?>
<!DOCTYPE svg PUBLIC "-//W3C//DTD SVG 20010904//EN"
 "http://www.w3.org/TR/2001/REC-SVG-20010904/DTD/svg10.dtd">
<svg version="1.0" xmlns="http://www.w3.org/2000/svg"
 width="8256.000000pt" height="2440.000000pt" viewBox="0 0 8256.000000 2440.000000"
 preserveAspectRatio="xMidYMid meet">

<g transform="translate(0.000000,2440.000000) scale(0.100000,-0.100000)"
fill="#000000" stroke="none">
<path d="M11020 13460 l0 -4410 155 0 155 0 2 2003 3 2002 43 143 c154 511
370 897 691 1235 317 332 692 534 1131 609 148 25 473 30 630 10 838 -110
1241 -564 1357 -1532 16 -133 17 -329 20 -2307 l4 -2163 155 0 155 0 -4 2178
c-3 1984 -4 2190 -20 2322 -48 403 -115 648 -252 925 -257 520 -692 803 -1360
886 -134 17 -515 17 -635 0 -355 -49 -660 -163 -959 -361 -372 -245 -653 -569
-869 -998 l-87 -173 -3 2021 -2 2020 -155 0 -155 0 0 -4410z"/>
<path d="M7678 16103 l-3 -838 -572 -3 -573 -2 0 -155 0 -155 575 0 575 0 3
-2382 c3 -2189 4 -2392 20 -2498 73 -490 215 -773 476 -949 115 -78 266 -135
441 -166 130 -23 421 -30 617 -16 155 12 338 42 354 58 7 7 -37 282 -46 291
-2 2 -59 -3 -127 -12 -586 -75 -890 -29 -1103 166 -120 110 -199 260 -255 483
-62 244 -60 154 -60 2703 l0 2322 705 0 705 0 0 155 0 155 -705 0 -705 0 0
840 0 840 -160 0 -160 0 -2 -837z"/>
<path d="M19425 15373 c-431 -35 -794 -159 -1147 -392 -201 -132 -401 -311
-560 -501 -167 -198 -363 -529 -477 -803 -130 -313 -219 -697 -251 -1072 -15
-186 -13 -775 5 -956 55 -578 228 -1076 530 -1529 119 -178 199 -276 354 -430
621 -617 1428 -865 2341 -719 526 84 953 303 1305 670 105 110 237 277 232
294 -2 5 -50 43 -107 84 l-103 73 -36 -43 c-443 -537 -957 -780 -1701 -806
-544 -18 -1022 133 -1461 464 -523 393 -899 1054 -1018 1783 -32 194 -41 334
-41 613 l0 257 2330 0 2330 0 0 228 c0 542 -63 936 -207 1302 -277 701 -818
1213 -1483 1400 -247 69 -588 103 -835 83z m330 -313 c567 -52 1046 -318 1388
-772 303 -402 469 -893 493 -1462 l7 -156 -2166 0 -2167 0 0 26 c0 48 31 237
62 378 151 698 543 1302 1075 1658 105 71 336 186 447 223 279 93 585 130 861
105z"/>
<path d="M27960 15373 c-703 -41 -1280 -296 -1735 -764 -481 -495 -757 -1183
-816 -2034 -15 -222 -6 -807 16 -1004 68 -611 228 -1090 502 -1505 510 -769
1326 -1167 2328 -1133 99 4 226 13 283 22 649 94 1254 428 1635 900 267 331
428 703 463 1073 l7 72 -505 0 -504 0 -12 -86 c-49 -338 -253 -639 -583 -860
-165 -110 -358 -188 -574 -231 -114 -23 -479 -25 -595 -5 -465 83 -775 280
-1023 647 -264 391 -387 922 -387 1675 0 753 126 1301 389 1691 305 453 726
668 1306 669 440 0 771 -132 1060 -425 231 -233 381 -552 411 -874 l7 -71 505
0 504 0 -7 88 c-25 325 -98 599 -229 867 -116 236 -238 406 -424 591 -507 505
-1204 745 -2022 697z"/>
<path d="M34131 15369 c-1374 -105 -2358 -1126 -2546 -2644 -39 -312 -39 -804
1 -1144 88 -764 378 -1401 858 -1884 416 -419 906 -656 1536 -744 176 -24 634
-24 810 0 503 70 905 232 1287 518 124 93 342 305 443 431 385 477 622 1113
681 1823 18 228 7 820 -20 1025 -91 687 -307 1213 -686 1675 -164 200 -409
417 -623 552 -479 302 -1098 442 -1741 392z m589 -897 c319 -68 586 -214 805
-444 359 -376 563 -879 616 -1522 24 -295 2 -743 -51 -1046 -125 -708 -471
-1244 -962 -1494 -245 -124 -494 -174 -813 -163 -192 7 -307 27 -468 81 -334
112 -600 323 -818 650 -298 448 -437 1062 -400 1772 42 809 240 1353 637 1750
232 233 509 374 844 429 127 21 483 13 610 -13z"/>
<path d="M41180 15370 c-608 -51 -1084 -265 -1484 -667 l-114 -115 -6 43 c-4
38 -26 545 -26 607 l0 22 -505 0 -505 0 0 -3105 0 -3105 535 0 535 0 0 2275 0
2275 49 94 c220 423 554 668 1026 752 299 53 667 31 923 -55 403 -135 631
-416 729 -901 16 -79 17 -249 20 -2262 l3 -2178 535 0 535 0 0 2053 c0 2234
-2 2132 56 2347 72 264 205 487 391 659 296 273 677 393 1148 361 480 -32 771
-166 953 -439 97 -145 158 -313 199 -552 16 -97 18 -248 20 -2266 l4 -2163
529 0 530 0 0 2139 c0 1378 -4 2184 -10 2267 -46 575 -195 992 -472 1320 -229
273 -579 465 -998 548 -227 45 -567 65 -810 47 -457 -35 -795 -146 -1140 -376
-222 -148 -425 -336 -565 -524 -33 -44 -62 -80 -65 -80 -3 -1 -21 29 -40 66
-271 515 -724 813 -1365 898 -145 19 -471 27 -615 15z"/>
<path d="M51451 15370 c-421 -35 -789 -157 -1090 -359 -137 -92 -230 -171
-355 -302 -70 -73 -118 -116 -120 -108 -2 8 -14 159 -27 337 l-23 322 -488 0
-488 0 0 -4305 0 -4305 535 0 535 0 0 1495 0 1495 79 -79 c407 -403 927 -607
1601 -628 512 -16 952 98 1314 341 570 383 978 1086 1121 1929 87 519 97 1175
24 1737 -101 788 -382 1412 -830 1845 -328 316 -698 497 -1162 566 -153 23
-468 32 -626 19z m164 -911 c173 -22 397 -97 536 -179 226 -134 423 -341 570
-596 150 -260 252 -592 306 -989 25 -188 25 -825 0 -1040 -80 -667 -262 -1110
-592 -1440 -201 -200 -432 -323 -725 -386 -91 -20 -135 -23 -325 -24 -232 0
-292 7 -470 52 -264 68 -485 193 -676 383 -116 116 -174 188 -255 317 l-54 86
0 1492 0 1492 79 119 c175 265 376 447 626 569 282 138 627 188 980 144z"/>
<path d="M57631 15369 c-927 -67 -1724 -537 -2065 -1218 -88 -175 -146 -390
-146 -542 l0 -69 529 0 529 0 6 23 c3 12 6 37 6 56 0 108 83 305 177 421 139
171 355 315 595 394 204 68 381 91 638 83 371 -12 635 -98 847 -276 184 -154
304 -365 364 -638 19 -86 22 -139 26 -440 l5 -343 -493 0 c-957 -1 -1298 -28
-1731 -139 -813 -208 -1369 -682 -1552 -1326 -68 -240 -94 -588 -62 -832 51
-384 193 -683 456 -956 122 -128 208 -200 340 -287 253 -166 532 -269 872
-321 117 -18 189 -22 393 -23 337 -1 527 27 804 120 317 105 673 327 906 563
38 39 72 71 76 71 3 0 12 -42 18 -92 28 -207 73 -405 113 -500 l20 -48 559 0
559 0 0 41 c0 23 -19 98 -44 168 -53 154 -89 294 -116 465 -54 329 -53 295
-60 2151 l-7 1730 -26 140 c-81 437 -250 763 -539 1041 -143 137 -266 224
-438 313 -179 91 -294 135 -475 181 -329 84 -713 116 -1084 89z m1509 -3947
l0 -637 -45 -79 c-227 -399 -690 -714 -1200 -816 -136 -28 -436 -38 -569 -21
-425 57 -771 297 -897 625 -54 141 -72 242 -72 416 -1 220 36 368 130 529 51
87 199 237 298 300 212 138 497 232 858 282 231 32 344 36 935 38 l562 1 0
-638z"/>
<path d="M64595 15374 c-640 -51 -1128 -282 -1550 -734 -39 -41 -84 -92 -101
-113 l-31 -38 -6 73 c-3 40 -12 214 -18 386 l-13 312 -503 0 -503 0 0 -3105 0
-3105 530 0 530 0 0 2213 0 2213 68 117 c97 169 171 266 307 402 295 295 615
444 1022 475 224 17 503 -14 675 -76 433 -156 643 -486 688 -1084 6 -86 10
-891 10 -2197 l0 -2063 530 0 530 0 0 2109 c0 2158 -2 2284 -40 2546 -143 996
-679 1550 -1600 1655 -102 11 -442 20 -525 14z"/>
<path d="M67690 15253 c0 -5 498 -1387 1106 -3073 l1105 -3066 -131 -354
c-205 -555 -238 -631 -347 -800 -75 -115 -234 -271 -334 -328 -252 -141 -586
-191 -996 -147 l-53 5 0 -433 0 -433 203 -37 c345 -64 519 -67 770 -16 611
123 1096 593 1414 1370 39 94 2527 7219 2550 7302 5 16 -27 17 -566 17 -314 0
-571 -2 -571 -5 0 -4 -1383 -4460 -1432 -4614 -10 -31 -65 130 -785 2293
l-774 2326 -580 0 c-318 0 -579 -3 -579 -7z"/>
<path d="M73900 10145 l0 -1095 1100 0 1100 0 0 1095 0 1095 -1100 0 -1100 0
0 -1095z"/>
</g>
</svg>
